<?xml version="1.0" encoding="utf-8"?>
<!-- Generator: Adobe Illustrator 16.0.0, SVG Export Plug-In . SVG Version: 6.00 Build 0)  -->
<!DOCTYPE svg PUBLIC "-//W3C//DTD SVG 1.1//EN" "http://www.w3.org/Graphics/SVG/1.1/DTD/svg11.dtd">
<svg version="1.1" id="Layer_1" xmlns="http://www.w3.org/2000/svg" xmlns:xlink="http://www.w3.org/1999/xlink" x="0px" y="0px"
	 width="72px" height="72px" viewBox="0 0 72 72" enable-background="new 0 0 72 72" xml:space="preserve">
<path fill="#2A4382" d="M66.014,10.013c-7.598-7.598-19.983-7.598-27.581,0L36,12.52l-2.508-2.507
	c-3.647-3.647-8.586-5.699-13.752-5.699c-5.167,0-10.106,2.052-13.753,5.775c-3.723,3.647-5.699,8.51-5.699,13.753
	c0,5.167,2.052,10.105,5.699,13.753L36,67.686l30.09-30.014c3.647-3.724,5.623-8.662,5.623-13.829
	C71.713,18.6,69.737,13.736,66.014,10.013z M63.886,35.468L36,63.354L8.113,35.468c-3.115-3.115-4.788-7.218-4.788-11.625
	s1.749-8.51,4.788-11.626c3.115-3.115,7.219-4.862,11.626-4.862c4.407,0,8.51,1.747,11.625,4.786L36,16.775l4.635-4.635
	c6.383-6.382,16.869-6.382,23.251,0c3.116,3.192,4.787,7.295,4.787,11.703S67.002,32.353,63.886,35.468z"/>
</svg>
