<?xml version="1.0" encoding="utf-8"?>
<!-- Generator: Adobe Illustrator 16.0.0, SVG Export Plug-In . SVG Version: 6.00 Build 0)  -->
<!DOCTYPE svg PUBLIC "-//W3C//DTD SVG 1.1//EN" "http://www.w3.org/Graphics/SVG/1.1/DTD/svg11.dtd">
<svg version="1.1" id="Layer_1" xmlns="http://www.w3.org/2000/svg" xmlns:xlink="http://www.w3.org/1999/xlink" x="0px" y="0px"
	 width="72px" height="72px" viewBox="0 0 72 72" enable-background="new 0 0 72 72" xml:space="preserve">
<g>
	<path fill="#2A4382" d="M14.889,50.275V17.37l9.625,9.625l2.139-2.139L13.408,11.611L0.163,24.855l2.139,2.139l9.543-9.542v32.824
		c0,5.842,4.771,10.613,10.612,10.613h24.35v-3.044h-24.35C18.262,57.845,14.889,54.473,14.889,50.275z"/>
	<path fill="#2A4382" d="M70.09,46.162l-9.551,9.552l-0.074-32.833c0-5.84-4.771-10.612-10.612-10.612H24.761v3.044h25.173
		c4.195,0,7.568,3.372,7.568,7.568v32.908l-9.624-9.627l-2.14,2.14l13.244,13.245l13.245-13.245L70.09,46.162z"/>
</g>
</svg>
