<?xml version="1.0" encoding="utf-8"?>
<!-- Generator: Adobe Illustrator 16.0.0, SVG Export Plug-In . SVG Version: 6.00 Build 0)  -->
<!DOCTYPE svg PUBLIC "-//W3C//DTD SVG 1.1//EN" "http://www.w3.org/Graphics/SVG/1.1/DTD/svg11.dtd">
<svg version="1.1" id="Layer_1" xmlns="http://www.w3.org/2000/svg" xmlns:xlink="http://www.w3.org/1999/xlink" x="0px" y="0px"
	 width="72px" height="72px" viewBox="0 0 72 72" enable-background="new 0 0 72 72" xml:space="preserve">
<path fill="#2A4382" stroke="#FFFFFF" stroke-width="2.6" stroke-miterlimit="10" d="M60.784,1.836H10.95
	c-6.024,0-10.926,4.901-10.926,10.928v51.538c0,1.346,0.732,2.587,1.911,3.234C2.493,67.846,3.107,68,3.721,68
	c0.687,0,1.372-0.191,1.973-0.57l12.002-7.563h43.088c6.023,0,10.925-4.9,10.925-10.928V12.764
	C71.709,6.737,66.808,1.836,60.784,1.836z M66.557,48.938c0,3.184-2.589,5.772-5.772,5.772H17.57c-0.89,0-1.759,0.251-2.516,0.726
	l-9.878,6.228v-48.9c0-3.184,2.59-5.775,5.772-5.775h49.833c3.185,0,5.772,2.591,5.772,5.775v36.174H66.557z"/>
</svg>
